# xmcd CD database file
#
# Track frame offsets:
#	150
#	12875
#	30772
#	43572
#	60427
#	74532
#	91100
#	115142
#	134207
#	153790
#	170385
#	180842
#	195270
#	220222
#	244912
#
# Disc length: 3519 seconds
#
# Revision: 2
# Processed by: cddbd v1.4PL0 Copyright (c) Steve Scherf et al.
# Submitted via: CDex 1.40Beta9
#
DISCID=b80dbd0f
DTITLE=Albert King - The Best of Albert King
DYEAR=1998
DGENRE=Blues
TTITLE0=Born Under A Bad Sign
TTITLE1=Phone Booth
TTITLE2=Crosscut Saw
TTITLE3=I'll Play The Blues For You Pt 1
TTITLE4=Killing Floor
TTITLE5=Breaking Up Somebody's Home
TTITLE6=Cold Sweat
TTITLE7=Driving Wheel
TTITLE8=Flat Tire
TTITLE9=The Pinch Paid Off Pt 1
TTITLE10=Left Hand Woman (Get Right With Me)
TTITLE11=Blues Power
TTITLE12=I Get Evil (Don't You Lie To Me)
TTITLE13=Got To Be Some Changes Made
TTITLE14=For The Love Of A Woman
EXTD=YEAR: 1998 ID3G: 0
EXTT0=
EXTT1=
EXTT2=
EXTT3=
EXTT4=
EXTT5=
EXTT6=
EXTT7=
EXTT8=
EXTT9=
EXTT10=
EXTT11=
EXTT12=
EXTT13=
EXTT14=
PLAYORDER=
